<?xml version="1.0" encoding="UTF-8" standalone="no"?>
<!DOCTYPE svg PUBLIC "-//W3C//DTD SVG 1.1//EN" "http://www.w3.org/Graphics/SVG/1.1/DTD/svg11.dtd">
<!-- Created with Vectornator (http://vectornator.io/) -->
<svg height="100%" stroke-miterlimit="10" style="fill-rule:nonzero;clip-rule:evenodd;stroke-linecap:round;stroke-linejoin:round;" version="1.1" viewBox="0 0 263.023 147.356" width="100%" xml:space="preserve" xmlns="http://www.w3.org/2000/svg" xmlns:vectornator="http://vectornator.io" xmlns:xlink="http://www.w3.org/1999/xlink">
    <defs/>
    <g id="Layer-1" vectornator:layerName="Layer 1">
        <path d="M35.2291 57.7877L36.9417 59.81L51.0609 76.4821L19.6438 105.771L1.0648 102.587L35.2291 57.7877Z" fill="#ffffff" fill-rule="nonzero" opacity="1" stroke="none"/>
        <path d="M35.9826 17.9503L50.294 17.9503L50.294 67.3415L35.9826 67.3415L35.9826 17.9503Z" fill="#ffffff" fill-rule="nonzero" opacity="1" stroke="none"/>
        <path d="M49.0806 105.996L72.4122 104.404L82.7743 135.322L64.3023 142.864L49.0806 105.996Z" fill="#ffffff" fill-rule="nonzero" opacity="1" stroke="none"/>
        <path d="M116.38 68.1427L143.349 62.6708L155.557 110.472L142.474 119.89L116.38 68.1427Z" fill="#ffffff" fill-rule="nonzero" opacity="1" stroke="none"/>
        <path d="M125.914 17.115L139.077 17.115L139.077 66.5063L125.914 66.5063L125.914 17.115Z" fill="#ffffff" fill-rule="nonzero" opacity="1" stroke="none"/>
        <path d="M127.16 2.32914L127.16 24.9784L44.3594 24.9784L44.3594 2.32914L127.16 2.32914Z" fill="#ffffff" fill-rule="nonzero" opacity="1" stroke="none"/>
        <path d="M78.8613 30.5258L87.4586 30.5258L87.4586 48.3114L78.8613 48.3114L78.8613 30.5258Z" fill="#ffffff" fill-rule="nonzero" opacity="1" stroke="none"/>
        <path d="M101.46 30.8142L110.057 30.8142L110.057 48.5998L101.46 48.5998L101.46 30.8142Z" fill="#ffffff" fill-rule="nonzero" opacity="1" stroke="none"/>
        <path d="M99.7271 106.217L121.17 111.709L100.904 144.177L83.1481 135.076L99.7271 106.217Z" fill="#ffffff" fill-rule="nonzero" opacity="1" stroke="none"/>
        <path d="M43.2902 81.9272L123.966 83.1989L126.749 106.62L35.0004 103.517L43.2902 81.9272Z" fill="#ffffff" fill-rule="nonzero" opacity="1" stroke="none"/>
        <g opacity="1">
            <path d="M144.958 104.104L237.856 25.8222L252.39 43.0696L151.914 113.705L144.958 104.104Z" fill="#ffffff" fill-rule="nonzero" opacity="1" stroke="none"/>
            <path d="M237.808 25.9126L261.246 19.148L252.362 43.1255" fill="#ffffff" fill-rule="nonzero" opacity="1" stroke="none"/>
        </g>
    </g>
</svg>
