<?xml version="1.0" encoding="UTF-8" standalone="no"?>
<!DOCTYPE svg PUBLIC "-//W3C//DTD SVG 1.1//EN" "http://www.w3.org/Graphics/SVG/1.1/DTD/svg11.dtd">
<!-- Created with Vectornator (http://vectornator.io/) -->
<svg height="100%" stroke-miterlimit="10" style="fill-rule:nonzero;clip-rule:evenodd;stroke-linecap:round;stroke-linejoin:round;" version="1.1" viewBox="0 0 110.695 62.6733" width="100%" xml:space="preserve" xmlns="http://www.w3.org/2000/svg" xmlns:vectornator="http://vectornator.io" xmlns:xlink="http://www.w3.org/1999/xlink">
    <defs/>
    <g id="Layer-1" vectornator:layerName="Layer 1">
        <path d="M15.4247 25.6395L16.1446 26.4895L22.0792 33.4971L8.87391 45.808L1.0648 44.4696L15.4247 25.6395Z" fill="#ffffff" fill-rule="nonzero" opacity="1" stroke="none"/>
        <path d="M15.7415 8.89501L21.7568 8.89501L21.7568 29.6551L15.7415 29.6551L15.7415 8.89501Z" fill="#ffffff" fill-rule="nonzero" opacity="1" stroke="none"/>
        <path d="M21.2468 45.9024L31.0536 45.2332L35.409 58.2285L27.6448 61.3989L21.2468 45.9024Z" fill="#ffffff" fill-rule="nonzero" opacity="1" stroke="none"/>
        <path d="M49.5341 29.9919L60.8698 27.6919L66.0011 47.7836L60.502 51.7423L49.5341 29.9919Z" fill="#ffffff" fill-rule="nonzero" opacity="1" stroke="none"/>
        <path d="M53.5416 8.54395L59.0743 8.54395L59.0743 29.3041L53.5416 29.3041L53.5416 8.54395Z" fill="#ffffff" fill-rule="nonzero" opacity="1" stroke="none"/>
        <path d="M54.0651 2.32914L54.0651 11.8491L19.2624 11.8491L19.2624 2.32914L54.0651 2.32914Z" fill="#ffffff" fill-rule="nonzero" opacity="1" stroke="none"/>
        <path d="M33.7642 14.1807L37.3779 14.1807L37.3779 21.6564L33.7642 21.6564L33.7642 14.1807Z" fill="#ffffff" fill-rule="nonzero" opacity="1" stroke="none"/>
        <path d="M43.2627 14.302L46.8764 14.302L46.8764 21.7776L43.2627 21.7776L43.2627 14.302Z" fill="#ffffff" fill-rule="nonzero" opacity="1" stroke="none"/>
        <path d="M42.5346 45.9952L51.5473 48.3038L43.0294 61.9507L35.5661 58.1255L42.5346 45.9952Z" fill="#ffffff" fill-rule="nonzero" opacity="1" stroke="none"/>
        <path d="M18.813 35.7858L52.7228 36.3203L53.8924 46.1645L15.3286 44.8603L18.813 35.7858Z" fill="#ffffff" fill-rule="nonzero" opacity="1" stroke="none"/>
        <g opacity="1">
            <path d="M61.5459 45.1071L100.593 12.2037L106.702 19.4532L64.4699 49.1426L61.5459 45.1071Z" fill="#ffffff" fill-rule="nonzero" opacity="1" stroke="none"/>
            <path d="M100.573 12.2417L110.424 9.39846L106.69 19.4767" fill="#ffffff" fill-rule="nonzero" opacity="1" stroke="none"/>
        </g>
    </g>
</svg>
